<!-- icon666.com - MILLIONS vector ICONS FREE --><svg enable-background="new 0 0 256 256" viewBox="0 0 256 256" xmlns="http://www.w3.org/2000/svg"><g id="Layer_1"><g><g><g><g><g><path d="m20.757 12.669h214.485v123.842h-214.485z" fill="#13bf6d"></path></g><g><path d="m102.769 50.232h36.745v36.745h-36.745z" fill="#afafaf" transform="matrix(-1 0 0 -1 242.283 137.208)"></path></g><g><path d="m20.757 119.482h214.485v17.029h-214.485z" fill="#f0c020"></path></g><g><path d="m195.505 80.304h22.28v22.28h-22.28z" fill="#afafaf" transform="matrix(-1 0 0 -1 413.289 182.889)"></path></g><g><circle cx="206.645" cy="55.863" fill="#afafaf" r="11.14"></circle></g></g><g><path d="m130.494 80.579h-5.168c-1.381 0-2.5-1.119-2.5-2.5s1.119-2.5 2.5-2.5h2.668v-16.332c0-1.381 1.119-2.5 2.5-2.5s2.5 1.119 2.5 2.5v18.832c0 1.381-1.119 2.5-2.5 2.5zm-15.168 0h-4.286c-1.381 0-2.5-1.119-2.5-2.5s1.119-2.5 2.5-2.5h4.286c1.381 0 2.5 1.119 2.5 2.5s-1.119 2.5-2.5 2.5z" fill="#efefef"></path></g></g><g><g><path d="m17.958 186.296h220.084v22.667h-220.084z" fill="#f0c020"></path></g><g><path d="m228.68 201.346h-201.36c-1.381 0-2.5-1.119-2.5-2.5s1.119-2.5 2.5-2.5h201.36c1.381 0 2.5 1.119 2.5 2.5s-1.119 2.5-2.5 2.5z" fill="#f9e5af"></path></g></g><g><path d="m250.833 235.096h-245.666v-21.13c0-2.761 2.239-5 5-5h235.667c2.761 0 5 2.239 5 5v21.13z" fill="#afafaf"></path></g><g><path d="m239.517 231.596h-209.667c-1.381 0-2.5-1.119-2.5-2.5s1.119-2.5 2.5-2.5h207.167v-7.833c0-1.381 1.119-2.5 2.5-2.5s2.5 1.119 2.5 2.5v10.333c0 1.381-1.119 2.5-2.5 2.5zm-219.667 0h-3.367c-1.381 0-2.5-1.119-2.5-2.5s1.119-2.5 2.5-2.5h3.367c1.381 0 2.5 1.119 2.5 2.5s-1.119 2.5-2.5 2.5z" fill="#efefef"></path></g><g><path d="m226.199 113.11h-160.229c-1.381 0-2.5-1.119-2.5-2.5s1.119-2.5 2.5-2.5h157.729v-84.271c0-1.381 1.119-2.5 2.5-2.5s2.5 1.119 2.5 2.5v86.771c0 1.381-1.119 2.5-2.5 2.5zm-170.229 0h-25.454c-1.381 0-2.5-1.119-2.5-2.5s1.119-2.5 2.5-2.5h25.454c1.381 0 2.5 1.119 2.5 2.5s-1.119 2.5-2.5 2.5z" fill="#76ffba"></path></g></g><path d="m94.954 78.325c-1.381 0-2.5 1.119-2.5 2.5s1.119 2.5 2.5 2.5h5.315v3.651c0 1.381 1.119 2.5 2.5 2.5h3.652v5.314c0 1.381 1.119 2.5 2.5 2.5s2.5-1.119 2.5-2.5v-5.314h7.221v5.314c0 1.381 1.119 2.5 2.5 2.5s2.5-1.119 2.5-2.5v-5.314h7.221v5.314c0 1.381 1.119 2.5 2.5 2.5s2.5-1.119 2.5-2.5v-5.314h3.652c1.381 0 2.5-1.119 2.5-2.5v-3.651h5.314c1.381 0 2.5-1.119 2.5-2.5s-1.119-2.5-2.5-2.5h-5.314v-7.221h5.314c1.381 0 2.5-1.119 2.5-2.5s-1.119-2.5-2.5-2.5h-5.314v-7.221h5.314c1.381 0 2.5-1.119 2.5-2.5s-1.119-2.5-2.5-2.5h-5.314v-3.652c0-1.381-1.119-2.5-2.5-2.5h-3.652v-5.314c0-1.381-1.119-2.5-2.5-2.5s-2.5 1.119-2.5 2.5v5.314h-7.221v-5.314c0-1.381-1.119-2.5-2.5-2.5s-2.5 1.119-2.5 2.5v5.314h-7.221v-5.314c0-1.381-1.119-2.5-2.5-2.5s-2.5 1.119-2.5 2.5v5.314h-3.652c-1.381 0-2.5 1.119-2.5 2.5v3.652h-5.315c-1.381 0-2.5 1.119-2.5 2.5s1.119 2.5 2.5 2.5h5.315v7.221h-5.315c-1.381 0-2.5 1.119-2.5 2.5s1.119 2.5 2.5 2.5h5.315v7.221zm10.315-25.594h31.745v31.745h-31.745z"></path><path d="m162.916 35.855h57.529c1.381 0 2.5-1.119 2.5-2.5s-1.119-2.5-2.5-2.5h-57.529c-1.381 0-2.5 1.119-2.5 2.5s1.119 2.5 2.5 2.5z"></path><path d="m6.037 12.667c0 1.381 1.119 2.5 2.5 2.5h9.721v121.344c0 1.381 1.119 2.5 2.5 2.5h214.485c1.381 0 2.5-1.119 2.5-2.5 0-1.965 0-118.822 0-121.344h9.721c1.381 0 2.5-1.119 2.5-2.5s-1.119-2.5-2.5-2.5h-238.927c-1.381 0-2.5 1.119-2.5 2.5zm226.706 104.315h-209.486v-101.813h209.485v101.813zm-175.488 5v12.028h-14.499v-12.028zm5 0h14.499v12.028h-14.499zm19.498 0h14.499v12.028h-14.499zm19.499 0h14.499v12.028h-14.499zm19.498 0h14.499v12.028h-14.499zm19.5 0h14.499v12.028h-14.499zm19.498 0h14.499v12.028h-14.499zm19.499 0h14.499v12.028h-14.499zm19.498 0h14.499v12.028h-14.499zm-175.488 0h14.499v12.028h-14.499zm209.486 12.029h-14.499v-12.028h14.499z"></path><path d="m178.545 42.223c-1.381 0-2.5 1.119-2.5 2.5v57.861c0 1.381 1.119 2.5 2.5 2.5s2.5-1.119 2.5-2.5v-57.861c0-1.381-1.119-2.5-2.5-2.5z"></path><path d="m165.577 42.223c-1.381 0-2.5 1.119-2.5 2.5v57.861c0 1.381 1.119 2.5 2.5 2.5s2.5-1.119 2.5-2.5v-57.861c0-1.381-1.119-2.5-2.5-2.5z"></path><path d="m69.391 105.084c1.381 0 2.5-1.119 2.5-2.5v-72.637c0-1.381-1.119-2.5-2.5-2.5s-2.5 1.119-2.5 2.5v72.637c0 1.381 1.119 2.5 2.5 2.5z"></path><path d="m52.681 105.084c1.381 0 2.5-1.119 2.5-2.5v-72.637c0-1.381-1.119-2.5-2.5-2.5s-2.5 1.119-2.5 2.5v72.637c0 1.381 1.119 2.5 2.5 2.5z"></path><path d="m37.717 105.084c1.381 0 2.5-1.119 2.5-2.5v-2.69c0-1.381-1.119-2.5-2.5-2.5s-2.5 1.119-2.5 2.5v2.69c0 1.381 1.119 2.5 2.5 2.5z"></path><path d="m37.717 91.095c1.381 0 2.5-1.119 2.5-2.5v-2.69c0-1.381-1.119-2.5-2.5-2.5s-2.5 1.119-2.5 2.5v2.69c0 1.381 1.119 2.5 2.5 2.5z"></path><path d="m37.717 77.105c1.381 0 2.5-1.119 2.5-2.5v-2.69c0-1.381-1.119-2.5-2.5-2.5s-2.5 1.119-2.5 2.5v2.69c0 1.381 1.119 2.5 2.5 2.5z"></path><path d="m37.717 63.116c1.381 0 2.5-1.119 2.5-2.5v-2.69c0-1.381-1.119-2.5-2.5-2.5s-2.5 1.119-2.5 2.5v2.69c0 1.381 1.119 2.5 2.5 2.5z"></path><path d="m37.717 49.127c1.381 0 2.5-1.119 2.5-2.5v-2.69c0-1.381-1.119-2.5-2.5-2.5s-2.5 1.119-2.5 2.5v2.69c0 1.381 1.119 2.5 2.5 2.5z"></path><path d="m37.717 35.138c1.381 0 2.5-1.119 2.5-2.5v-2.69c0-1.381-1.119-2.5-2.5-2.5s-2.5 1.119-2.5 2.5v2.69c0 1.381 1.119 2.5 2.5 2.5z"></path><path d="m217.785 77.805h-22.28c-1.381 0-2.5 1.119-2.5 2.5v22.279c0 1.381 1.119 2.5 2.5 2.5h22.28c1.381 0 2.5-1.119 2.5-2.5v-22.279c0-1.381-1.119-2.5-2.5-2.5zm-2.5 22.279h-17.28v-17.279h17.28z"></path><path d="m206.645 42.223c-7.521 0-13.64 6.119-13.64 13.641 0 7.521 6.119 13.64 13.64 13.64s13.64-6.119 13.64-13.64c0-7.522-6.119-13.641-13.64-13.641zm0 22.28c-4.764 0-8.64-3.876-8.64-8.64 0-4.765 3.875-8.641 8.64-8.641s8.64 3.876 8.64 8.641c0 4.764-3.876 8.64-8.64 8.64z"></path><path d="m245.833 206.466h-5.292v-20.17c0-1.381-1.119-2.5-2.5-2.5h-220.083c-1.381 0-2.5 1.119-2.5 2.5v20.17h-5.292c-4.136 0-7.5 3.364-7.5 7.5v21.13c0 1.381 1.119 2.5 2.5 2.5s2.5-1.119 2.5-2.5v-21.13c0-1.379 1.122-2.5 2.5-2.5h235.667c1.378 0 2.5 1.121 2.5 2.5v21.13c0 1.381 1.119 2.5 2.5 2.5s2.5-1.119 2.5-2.5v-21.13c0-4.136-3.364-7.5-7.5-7.5zm-225.375-17.67h17.008v17.667h-17.008zm171.067 17.667h-17.008v-17.667h17.008zm5-17.667h17.009v17.667h-17.009zm-27.008 17.667h-17.008v-17.667h17.008zm-22.009 0h-17.008v-17.667h17.008zm-22.008 0h-17.008v-17.667h17.008zm-22.008 0h-17.009v-17.667h17.008v17.667zm-22.009 0h-17.008v-17.667h17.008zm-22.008 0h-17.009v-17.667h17.009zm176.067 0h-17.008v-17.667h17.008z"></path><path d="m82.062 149.596c-1.381 0-2.5 1.119-2.5 2.5v12.951l-3.03-3.031c-.977-.977-2.56-.977-3.536 0-.977.976-.977 2.559 0 3.535l7.296 7.296c.991.994 2.582.961 3.54 0l7.296-7.296c.977-.977.977-2.559 0-3.535-.976-.977-2.56-.977-3.535 0l-3.031 3.031v-12.951c0-1.381-1.119-2.5-2.5-2.5z"></path><path d="m128 149.596c-1.381 0-2.5 1.119-2.5 2.5v12.951l-3.031-3.031c-.976-.977-2.56-.977-3.535 0-.977.977-.977 2.559 0 3.535l7.296 7.296c.962.964 2.557.985 3.54 0l7.296-7.296c.977-.977.977-2.559 0-3.535-.976-.977-2.56-.977-3.535 0l-3.031 3.031v-12.951c0-1.381-1.119-2.5-2.5-2.5z"></path><path d="m173.938 149.596c-1.381 0-2.5 1.119-2.5 2.5v12.951l-3.031-3.031c-.976-.977-2.56-.977-3.535 0-.977.977-.977 2.559 0 3.535l7.296 7.296c.987.99 2.574.969 3.54 0l7.296-7.296c.977-.977.977-2.56 0-3.535-.977-.977-2.559-.977-3.536 0l-3.03 3.031v-12.951c0-1.381-1.119-2.5-2.5-2.5z"></path></g></g></svg>