<!-- icon666.com - MILLIONS vector ICONS FREE --><svg viewBox="0 0 32 32" xmlns="http://www.w3.org/2000/svg"><g id="install_x2C__software_x2C__repair_x2C__overhaul_x2C__wrench_x2C__cogwheel"><path d="m24.377 12.936c-.064-.41-.162-.808-.273-1.198l2.661-1.803-1.362-2.673-3.018 1.091c-.508-.649-1.095-1.226-1.74-1.729l1.094-3.026-2.673-1.361-1.805 2.662c-.778-.225-1.588-.361-2.421-.39l-.892-3.083-2.963.469.104 3.209c-.783.283-1.512.663-2.184 1.118l-2.537-1.975-2.121 2.121 1.976 2.54c-.458.678-.84 1.407-1.121 2.182l-3.207-.105-.469 2.964 3.088.893c.014.405.044.813.109 1.224.065.41.162.808.273 1.198l-2.661 1.803 1.362 2.673 3.018-1.091c.508.649 1.095 1.226 1.74 1.729l-1.094 3.026 2.673 1.361 1.805-2.662c.778.225 1.588.361 2.421.39l.892 3.083 2.963-.469-.104-3.209c.783-.283 1.512-.663 2.184-1.118l2.538 1.975 2.121-2.121-1.976-2.54c.458-.678.84-1.407 1.121-2.182l3.207.105.469-2.964-3.088-.893c-.014-.406-.046-.813-.11-1.224z" fill="#65f0cd"></path><path d="m15.052 28.074c-.22 0-.418-.145-.48-.361l-.793-2.741c-.608-.043-1.22-.142-1.825-.294l-1.604 2.366c-.143.209-.419.279-.641.165l-2.673-1.361c-.225-.114-.329-.378-.244-.615l.973-2.691c-.48-.4-.92-.837-1.313-1.303l-2.684.971c-.235.084-.501-.02-.615-.244l-1.363-2.674c-.114-.225-.044-.499.165-.641l2.365-1.603c-.083-.322-.145-.616-.191-.905-.046-.29-.078-.589-.098-.922l-2.744-.793c-.242-.07-.395-.31-.355-.559l.468-2.963c.039-.243.249-.422.494-.422h.017l2.852.094c.228-.562.512-1.112.847-1.645l-1.757-2.258c-.155-.198-.138-.481.041-.66l2.121-2.121c.179-.178.462-.194.66-.041l2.257 1.756c.529-.333 1.081-.616 1.646-.845l-.093-2.853c-.007-.252.173-.471.422-.511l2.963-.469c.254-.038.488.114.559.355l.793 2.741c.608.043 1.22.142 1.825.294l1.604-2.366c.141-.21.416-.28.641-.165l2.673 1.361c.225.114.329.378.244.615l-.973 2.691c.48.4.92.837 1.313 1.303l2.684-.971c.236-.082.502.02.615.244l1.362 2.673c.114.225.044.499-.165.641l-2.365 1.603c.084.327.146.621.191.907.045.288.077.592.098.92l2.744.793c.242.07.395.31.355.559l-.468 2.965c-.039.243-.249.422-.494.422-.005 0-.011 0-.017 0l-3.207-.105c-.275-.01-.492-.24-.483-.517.009-.271.231-.483.5-.483h.017l2.766.091.331-2.092-2.664-.77c-.208-.061-.354-.247-.361-.464-.015-.431-.048-.811-.104-1.163-.054-.342-.137-.704-.26-1.139-.06-.207.021-.43.2-.551l2.296-1.555-.962-1.887-2.603.941c-.203.071-.431.008-.563-.163-.47-.601-1.026-1.152-1.654-1.642-.171-.133-.236-.361-.163-.564l.944-2.611-1.887-.961-1.557 2.297c-.122.179-.345.257-.553.2-.762-.22-1.535-.345-2.299-.37-.217-.008-.403-.153-.464-.361l-.769-2.659-2.092.331.091 2.768c.007.217-.126.413-.33.486-.72.261-1.417.618-2.073 1.063-.179.121-.416.114-.586-.02l-2.19-1.703-1.497 1.496 1.704 2.192c.133.171.141.407.02.587-.448.663-.807 1.36-1.065 2.072-.073.203-.28.339-.486.329l-2.766-.091-.331 2.092 2.664.77c.208.061.354.247.361.464.015.443.048.813.104 1.162s.139.712.26 1.14c.06.207-.021.43-.2.551l-2.296 1.555.962 1.887 2.603-.941c.204-.072.431-.007.563.163.47.601 1.026 1.152 1.654 1.642.171.133.236.361.163.564l-.944 2.611 1.887.961 1.557-2.297c.121-.18.343-.26.553-.2.762.22 1.535.345 2.299.37.217.008.403.153.464.361l.769 2.659 2.092-.331-.091-2.768c-.009-.276.208-.508.483-.517.318-.013.508.208.517.483l.104 3.209c.008.252-.173.471-.422.511l-2.963.469c-.028.004-.055.006-.08.006z" fill="#455a64" style="fill: rgb(38, 42, 44);"></path><path d="m22.638 16.931.358-2.869c.02-.152-.033-.306-.143-.415l-3.5-3.5c-.093-.094-.22-.147-.353-.147h-3c-.202 0-.385.122-.462.309s-.034.402.108.545l2.823 2.823-.412 2.881-2.881.412-2.823-2.823c-.143-.144-.359-.185-.545-.108-.187.077-.309.26-.309.462v3c0 .133.053.26.146.354l3.54 3.54c.111.111.269.163.421.142l2.835-.386 1.637 1.637c.005-.003.01-.005.015-.008l2.538 1.975 2.121-2.121-1.976-2.54c.419-.619.763-1.286 1.035-1.986z" fill="#1ad2a4"></path><g id="setting_x2C__service_x2C__tools"><path d="m30.246 26.765-9.635-9.653.389-3.112-3.5-3.5h-3l3 3-.5 3.5-3.5.5-3-3v3l3.54 3.54 3.08-.42 9.623 9.641c.96.962 2.517.968 3.483.013l.007-.007c.974-.962.981-2.534.013-3.502z" fill="#fff5a2"></path><path d="m26.998 30.998c-.128 0-.256-.049-.354-.146l-9.702-9.702-2.835.386c-.152.02-.31-.03-.421-.142l-3.54-3.54c-.093-.094-.146-.221-.146-.354v-3c0-.202.122-.385.309-.462.186-.075.402-.034.545.108l2.823 2.823 2.881-.412.412-2.881-2.823-2.823c-.143-.143-.186-.358-.108-.545s.259-.308.461-.308h3c.133 0 .26.053.354.146l3.5 3.5c.109.109.162.263.143.415l-.358 2.869 7.216 7.216c.195.195.195.512 0 .707s-.512.195-.707 0l-7.389-7.389c-.109-.109-.162-.263-.143-.415l.358-2.869-3.181-3.18h-1.586l2.146 2.146c.111.111.164.269.142.424l-.5 3.5c-.031.221-.204.394-.425.425l-3.5.5c-.155.019-.313-.03-.424-.142l-2.146-2.146v1.586l3.218 3.218 2.835-.386c.155-.02.311.031.421.142l9.878 9.878c.195.195.195.512 0 .707-.098.097-.226.146-.354.146z" fill="#455a64" style="fill: rgb(38, 42, 44);"></path><g><path d="m19.5 19.5 11 11z" fill="#ff8a80"></path><path d="m30.5 31c-.128 0-.256-.049-.354-.146l-11-11c-.195-.195-.195-.512 0-.707s.512-.195.707 0l11 11c.195.195.195.512 0 .707-.097.097-.225.146-.353.146z" fill="#e6d96a"></path></g></g><g fill="#455a64"><circle cx="14.5" cy="30" r=".5" fill="#455a64" style="fill: rgb(38, 42, 44);"></circle><circle cx="24.5" cy="2.5" r=".5" fill="#455a64" style="fill: rgb(38, 42, 44);"></circle><circle cx="13.5" cy="13.5" r=".5" fill="#455a64" style="fill: rgb(38, 42, 44);"></circle><circle cx="14.5" cy="14.5" r=".5" fill="#455a64" style="fill: rgb(38, 42, 44);"></circle><circle cx="29.5" cy="26" r=".5" fill="#455a64" style="fill: rgb(38, 42, 44);"></circle><path d="m12.532 30.376c-.021 0-.042-.001-.063-.004-4.001-.507-7.639-2.497-10.241-5.604-.177-.212-.149-.527.063-.705.211-.177.525-.15.705.063 2.439 2.914 5.849 4.78 9.599 5.255.274.035.468.285.434.559-.034.251-.249.436-.497.436z" fill="#455a64" style="fill: rgb(38, 42, 44);"></path><path d="m30 15c-.276 0-.5-.224-.5-.5 0-3.777-1.408-7.385-3.966-10.16-.187-.203-.174-.52.029-.707.202-.186.52-.172.707.029 2.728 2.96 4.229 6.81 4.229 10.838.001.276-.223.5-.499.5z" fill="#455a64" style="fill: rgb(38, 42, 44);"></path><path d="m9.551 19.949c-.128 0-.256-.049-.354-.146-1.417-1.416-2.197-3.3-2.197-5.303s.78-3.887 2.197-5.303c1.416-1.417 3.299-2.197 5.303-2.197 2.003 0 3.887.78 5.303 2.197.195.195.195.512 0 .707s-.512.195-.707 0c-1.228-1.227-2.86-1.904-4.596-1.904s-3.368.676-4.596 1.904c-1.227 1.228-1.904 2.86-1.904 4.596s.677 3.368 1.904 4.596c.195.195.195.512 0 .707-.097.097-.225.146-.353.146z" fill="#455a64" style="fill: rgb(38, 42, 44);"></path></g></g></svg>