<!-- icon666.com - MILLIONS vector ICONS FREE --><svg viewBox="0 0 512 512" xmlns="http://www.w3.org/2000/svg" xmlns:xlink="http://www.w3.org/1999/xlink"><linearGradient id="a" gradientUnits="userSpaceOnUse" x1="0" x2="512" y1="256" y2="256"><stop offset="0" stop-color="#00f1ff"></stop><stop offset=".231" stop-color="#00d8ff"></stop><stop offset=".5138" stop-color="#00c0ff"></stop><stop offset=".7773" stop-color="#00b2ff"></stop><stop offset="1" stop-color="#00adff"></stop></linearGradient><path d="m512 256c0 141.386719-114.613281 256-256 256s-256-114.613281-256-256 114.613281-256 256-256 256 114.613281 256 256zm0 0" fill="url(#a)"></path><g fill="#fff"><path d="m243.496094 342.058594h-109.738282c-14.707031 0-26.671874-11.964844-26.671874-26.675782v-155.5l118.988281 73.988282c9.226562 5.738281 19.578125 8.609375 29.925781 8.609375s20.695312-2.871094 29.925781-8.609375l118.988281-73.988282v82.574219c0 8.28125 6.714844 15 15 15 8.285157 0 15-6.71875 15-15v-87.515625c0-31.25-25.425781-56.671875-56.675781-56.671875h-244.480469c-31.25 0-56.671874 25.421875-56.671874 56.671875v160.441406c0 31.25 25.421874 56.675782 56.671874 56.675782h109.738282c8.285156 0 15-6.71875 15-15 0-8.285156-6.714844-15-15-15zm134.742187-213.789063c5.195313 0 10.042969 1.496094 14.148438 4.074219l-122.300781 76.050781c-8.6875 5.402344-19.484376 5.402344-28.171876 0l-122.300781-76.050781c4.105469-2.578125 8.953125-4.074219 14.144531-4.074219zm0 0"></path><path d="m428.683594 344.957031-12.886719-9.285156c.011719-.515625.019531-1.023437.019531-1.535156 0-.851563-.027344-1.703125-.0625-2.550781-.011718-.21875-.019531-.433594-.03125-.648438-.007812-.140625-.011718-.28125-.023437-.421875l13.320312-10.171875c6.207031-4.742188 7.738281-13.457031 3.511719-20.03125l-7.582031-11.792969c-3.863281-6.011719-11.4375-8.460937-18.09375-5.851562l-14.382813 5.640625c-1.980468-1.445313-4.058594-2.742188-6.203125-3.914063-.066406-.035156-.128906-.074219-.191406-.109375-.683594-.371094-1.375-.722656-2.074219-1.0625-.148437-.074218-.296875-.152344-.449218-.222656-.183594-.089844-.363282-.183594-.546876-.269531l-2.851562-15.84375c-1.285156-7.144531-7.503906-12.34375-14.761719-12.34375h-12.160156c-7.242187 0-13.449219 5.175781-14.753906 12.304687l-2.875 15.722656c-.3125.140626-.613281.300782-.921875.449219-.082032.039063-.160156.082031-.242188.121094-3.417968 1.65625-6.671875 3.632813-9.695312 5.949219l-15.410156-5.265625c-6.980469-2.382813-14.652344.660156-18.105469 7.179687l-6.816407 12.875c-3.609374 6.820313-1.453124 15.265625 4.980469 19.527344l13.113281 8.679688c-.027343.683593-.039062 1.367187-.039062 2.050781 0 .851562.027344 1.707031.066406 2.554687.007813.234375.019532.464844.035156.695313.007813.175781.015626.351562.023438.527343l-12.847656 10.179688c-5.746094 4.554688-7.359375 12.59375-3.816406 19.007812l6.511718 11.796876c3.652344 6.605468 11.636719 9.472656 18.660156 6.691406l14.519532-5.753906c2.746094 2.019531 5.675781 3.769531 8.734375 5.257812.113281.054688.222656.113281.335937.167969.195313.09375.386719.195312.585938.289062l2.851562 15.839844c1.285156 7.144531 7.503906 12.34375 14.761719 12.34375h12.503906c7.367188 0 13.644531-5.355469 14.808594-12.632813l2.464844-15.386718c.285156-.132813.5625-.285156.847656-.421875.175781-.082031.351563-.171875.527344-.257813 3.15625-1.542968 6.15625-3.378906 8.976562-5.488281.003907-.007813.011719-.011719.015625-.015625.445313-.332031.902344-.648438 1.335938-.996094l14.910156 5.289063c7.375 2.617187 15.515625-.875 18.707031-8.015625l5.617188-12.558594c2.90625-6.496094.847656-14.136719-4.921875-18.292969zm-43.011719-8.054687c0 .023437-.003906.042968-.007813.070312-.046874.425782-.101562.855469-.167968 1.28125-.019532.140625-.050782.277344-.074219.414063-.050781.300781-.101563.601562-.164063.898437-.953124 4.585938-3.089843 8.742188-6.070312 12.136719-.386719.445313-.785156.878906-1.199219 1.289063-.082031.085937-.171875.164062-.253906.246093-.332031.320313-.667969.628907-1.011719.933594-.171875.152344-.34375.304687-.519531.449219-.375.316406-.757813.617187-1.148437.910156-.234376.171875-.472657.335938-.710938.503906-.21875.152344-.441406.304688-.667969.449219-.382812.25-.773437.492187-1.171875.722656-.257812.148438-.511718.296875-.773437.4375-.265625.144531-.539063.28125-.808594.414063-.292969.144531-.585937.28125-.886719.414062-.3125.144532-.632812.28125-.957031.410156-.378906.152344-.761719.296876-1.148437.433594-.195313.066406-.386719.132813-.582032.195313-.542968.175781-1.089844.339843-1.644531.476562-2.097656.535157-4.296875.820313-6.5625.820313-2.472656 0-4.863281-.34375-7.136719-.976563-.382812-.105469-.761718-.222656-1.140625-.34375-.210937-.070312-.421875-.140625-.632812-.214843-.335938-.121094-.667969-.246094-.996094-.378907-.320313-.128906-.632813-.261719-.945313-.402343-.292968-.128907-.585937-.265626-.871093-.40625-.246094-.121094-.488281-.246094-.730469-.375-.238281-.125-.472656-.257813-.707031-.390626-.332031-.1875-.660157-.382812-.980469-.585937-.289062-.179687-.574219-.363281-.859375-.554687-.21875-.152344-.4375-.308594-.652344-.464844-.234375-.171875-.46875-.347656-.695312-.527344-.191407-.148438-.386719-.292969-.574219-.449219-.371094-.304687-.734375-.625-1.089844-.949219-.160156-.148437-.316406-.304687-.476562-.453124-.253906-.246094-.503906-.496094-.746094-.75-3.246094-3.382813-5.605469-7.613282-6.71875-12.324219-.082031-.34375-.160156-.6875-.226562-1.035157-.03125-.164062-.058594-.328124-.089844-.492187-.058594-.347656-.113282-.699219-.160156-1.046875-.019532-.164062-.042969-.324219-.0625-.484375-.042969-.371094-.074219-.738281-.101563-1.109375-.007813-.144531-.023437-.285156-.03125-.429688-.03125-.507812-.046875-1.019531-.046875-1.53125 0-.488281.015625-.984374.042969-1.476562.003906-.058594.007812-.121094.011719-.179688.03125-.445312.066406-.890624.117187-1.335937.003906-.035156.007813-.070313.015625-.105469.054688-.472656.121094-.941406.203125-1.414062.003906-.019532.007813-.042969.011719-.0625.082031-.46875.175781-.9375.28125-1.40625 1.117187-4.84375 3.550781-9.183594 6.910156-12.628906.101562-.101563.199219-.210938.304688-.3125.261718-.261719.53125-.515626.804687-.765626.066406-.0625.136719-.121093.203125-.179687.554688-.496094 1.128906-.972656 1.726562-1.421875.042969-.035156.085938-.070312.132813-.105469.972656-.722656 1.996094-1.382812 3.0625-1.96875.070313-.039062.140625-.082031.210937-.117187.339844-.183594.683594-.363282 1.035157-.53125.09375-.046875.191406-.089844.285156-.132813.5625-.261719 1.132813-.503906 1.710937-.730469.21875-.085937.441407-.167968.664063-.25.269531-.097656.542969-.1875.816406-.277343.363281-.113281.730469-.222657 1.101563-.324219 2.238281-.609375 4.589844-.945312 7.023437-.945312 2.484375 0 4.886719.351562 7.171875.988281.363282.101562.71875.207031 1.074219.324219.222656.074218.4375.144531.65625.222656.320313.113281.640625.238281.957031.363281.292969.117187.585938.238281.875.367187.328125.144532.652344.292969.976563.453126.230469.109374.453125.226562.675781.34375.265625.140624.527344.285156.789062.433593.203126.117188.410157.230469.609376.351563.410156.25.8125.507812 1.207031.78125.179687.121094.355469.25.53125.375.28125.207031.5625.414062.835937.628906.15625.121094.3125.242188.464844.363281.398438.324219.789062.660157 1.167969 1.007813.109375.097656.210937.203125.320312.304687.304688.285157.601563.582031.894531.886719 3.242188 3.367188 5.605469 7.578125 6.726563 12.269531.089844.371094.171875.738281.246094 1.113281.03125.160157.058593.320313.085937.480469.058594.351563.113282.703125.160156 1.054688.023438.164062.046876.324219.0625.488281.042969.367188.078126.734375.101563 1.101562.011719.148438.027344.292969.035156.4375.03125.511719.046875 1.023438.046875 1.535157 0 .921875-.046875 1.847656-.144531 2.765625zm0 0"></path></g></svg>