<!-- icon666.com - MILLIONS vector ICONS FREE --><svg id="Layer_1" enable-background="new 0 0 512 512" viewBox="0 0 512 512" xmlns="http://www.w3.org/2000/svg" xmlns:xlink="http://www.w3.org/1999/xlink"><linearGradient id="SVGID_1_" gradientUnits="userSpaceOnUse" x1="256" x2="256" y1="0" y2="512"><stop offset="0" stop-color="#01f1fe"></stop><stop offset="1" stop-color="#4fadfe"></stop></linearGradient><path d="m309.581 298.801 60.901 29.626-52.434 52.433c-98.251-13.775-176.279-95.968-184.567-194.496l47.469-47.468 29.626 60.9-17.967 17.966c-3.812 3.812-4.614 9.696-1.962 14.389 20.239 35.821 49.484 66.228 84.571 87.934 4.733 2.931 10.861 2.218 14.799-1.72zm202.419-42.801c0 141.159-114.841 256-256 256s-256-114.841-256-256 114.84-256 256-256 256 114.841 256 256zm-109.29 67.017c-.642-3.827-3.095-7.107-6.585-8.805l-83.735-40.733c-4.6-2.237-10.115-1.313-13.734 2.306l-18.743 18.744c-25.637-17.422-47.435-40.12-63.746-66.383l17.426-17.425c3.618-3.618 4.544-9.133 2.306-13.734l-40.733-83.734c-1.697-3.49-4.978-5.943-8.805-6.585-3.825-.642-7.729.605-10.472 3.349l-63.25 63.249c-2.422 2.422-3.693 5.764-3.494 9.184 3.211 55.118 26.628 108.214 65.938 149.504 39.231 41.209 91.066 67.302 145.956 73.473.448.051.896.075 1.342.075 3.164 0 6.222-1.252 8.484-3.515l68.498-68.497c2.743-2.746 3.99-6.647 3.347-10.473z" fill="url(#SVGID_1_)"></path></svg>