<!-- icon666.com - MILLIONS vector ICONS FREE --><svg id="_x33_0" enable-background="new 0 0 62 62" viewBox="0 0 62 62" xmlns="http://www.w3.org/2000/svg"><g><g><g><path d="m60 21h-18c-.552 0-1-.448-1-1v-18c0-.552.448-1 1-1h18c.552 0 1 .448 1 1v18c0 .552-.448 1-1 1z" fill="#d3a06c"></path></g><g><path d="m47.71 21c2.08 3.16 3.29 6.94 3.29 11 0 11.05-8.95 20-20 20-2.66 0-5.2-.52-7.52-1.46.84-.48 1.62-1.08 2.3-1.76 1.77-1.77 2.94-4.14 3.17-6.78h1.05c.83 0 1.58-.34 2.12-.88s.88-1.29.88-2.12c0-1.22-.72-2.26-1.76-2.73l1.19-3.55c.38-1.14.57-2.33.57-3.54 0-3.08-1.25-5.88-3.28-7.9-2.02-2.03-4.82-3.28-7.9-3.28h-5.1c3.63-3.7 8.69-6 14.28-6 3.64 0 7.06.97 10 2.68v5.32c0 .55.45 1 1 1z" fill="#69d6f4"></path></g><g><path d="m55 1v5c0 .55-.45 1-1 1h-6c-.55 0-1-.45-1-1v-5z" fill="#b27946"></path></g><g><path d="m22 54c1.8.3 3.4 1.15 4.62 2.38 1.23 1.22 2.08 2.82 2.38 4.62h-8l-1-5z" fill="#ff826e"></path></g><g><path d="m17 56-1 5h-8c.6-3.59 3.41-6.4 7-7z" fill="#ff826e"></path></g><g><path d="m20 56 1 5h-5l1-5z" fill="#ffeaa7"></path></g><g><path d="m29 32h-5.93c-3.24 0-6.39-.92-9.09-2.62l-5.03 1.89c-1.17.44-1.95 1.56-1.95 2.81l-1.97-.03c-.34 0-.67.03-.98.11l-.48-1.44c-.38-1.14-.57-2.33-.57-3.54 0-5.03 3.33-9.29 7.91-10.69 1.03-.32 2.13-.49 3.27-.49h2.54 5.1c3.08 0 5.88 1.25 7.9 3.28 2.03 2.02 3.28 4.82 3.28 7.9 0 1.21-.19 2.4-.57 3.54l-1.19 3.55c-.38-.17-.8-.27-1.24-.27h-1z" fill="#656d78"></path></g><g><path d="m31.24 36.27c1.04.47 1.76 1.51 1.76 2.73 0 .83-.34 1.58-.88 2.12s-1.29.88-2.12.88h-1.05c.03-.33.05-.66.05-1v-5h1c.44 0 .86.1 1.24.27z" fill="#f0d0b4"></path></g><g><path d="m21.18 51.53.82 2.47-2 2h-3l-2-2c1.1 0 2-.9 2-2 0-.01 0-.03 0-.04.33.02.66.04 1 .04 1.11 0 2.18-.16 3.18-.47z" fill="#f0d0b4"></path></g><g><path d="m15 50c-.78 0-1.51.28-2.08.76-3.24-1.69-5.53-4.95-5.87-8.76-.03-.33-.05-.66-.05-1v-6.92c0-1.25.78-2.37 1.95-2.81l5.03-1.89c2.7 1.7 5.85 2.62 9.09 2.62h5.93v4 5c0 .34-.02.67-.05 1-.23 2.64-1.4 5.01-3.17 6.78-.68.68-1.46 1.28-2.3 1.76-.72.42-1.49.75-2.3.99-1 .31-2.07.47-3.18.47-.34 0-.67-.02-1-.04-.01-.53-.23-1.02-.59-1.37-.36-.37-.86-.59-1.41-.59z" fill="#f0d0b4"></path></g><g><path d="m4.97 42h2.03v3c0 .55-.45 1-1 1h-1-1c-.55 0-1-.45-1-1v-3.52-.01c.58.34 1.26.53 1.97.53z" fill="#969faa"></path></g><g><path d="m7 34.08v6.92c0 .34.02.67.05 1h-.05-2.03c-.71 0-1.39-.19-1.97-.53-.31-.17-.59-.38-.84-.63-.72-.72-1.16-1.72-1.16-2.81 0-1.88 1.3-3.45 3.05-3.87.31-.08.64-.11.98-.11z" fill="#aab2bd"></path></g><g><path d="m17 51.96v.04c0 1.1-.9 2-2 2h-4l1.11-2.21c.2-.4.47-.75.81-1.03.57-.48 1.3-.76 2.08-.76.55 0 1.05.22 1.41.59.36.35.58.84.59 1.37z" fill="#aab2bd"></path></g><g><path d="m21 44-.51 2.06c-.29 1.14-1.31 1.94-2.49 1.94s-2.2-.8-2.49-1.94l-.51-2.06z" fill="#ff826e"></path></g></g><g><path d="m14.545 46.302c.396 1.589 1.817 2.698 3.455 2.698s3.059-1.109 3.455-2.698l.825-3.302h-8.56zm5.175-1.302-.204.817c-.175.697-.798 1.183-1.516 1.183s-1.341-.486-1.516-1.183l-.204-.817z"></path><path d="m14 39h2v-1c0-1.654-1.346-3-3-3s-3 1.346-3 3v1h2v-1c0-.552.448-1 1-1s1 .448 1 1z"></path><path d="m23 35c-1.654 0-3 1.346-3 3v1h2v-1c0-.552.448-1 1-1s1 .448 1 1v1h2v-1c0-1.654-1.346-3-3-3z"></path><path d="m60 0h-18c-1.103 0-2 .897-2 2v11.031c-2.799-1.328-5.876-2.031-9-2.031-5.54 0-10.726 2.136-14.672 6h-2.144c-.371 0-.736.023-1.099.056.982-1.246 2.153-2.347 3.469-3.224l-1.109-1.664c-2.085 1.389-3.868 3.26-5.159 5.41l-.056.093c-4.781 1.648-8.23 6.18-8.23 11.514 0 1.313.211 2.61.625 3.853l.178.534c-.479.234-.931.528-1.323.914-.955.942-1.48 2.2-1.48 3.54 0 1.623.793 3.054 2 3.962v3.012c0 1.103.897 2 2 2v2c0 3.309 2.691 6 6 6h.429c-1.773 1.432-3.023 3.482-3.416 5.836l-.194 1.164h23.361l-.194-1.164c-.635-3.808-3.501-6.834-7.221-7.702l-.331-.993c.385-.154.761-.325 1.126-.516 2.376.901 4.873 1.375 7.44 1.375 11.579 0 21-9.421 21-21 0-3.52-.878-6.941-2.538-10h1.879l.377.879c1.514 3.534 2.282 7.275 2.282 11.121h2c0-4.118-.822-8.125-2.444-11.908l-.04-.092h6.484c1.103 0 2-.897 2-2v-18c0-1.103-.897-2-2-2zm-12 2h6v4h-6zm-10 30c0 2.389-.343 4.739-.991 7h-3.009c0-1.285-.619-2.417-1.563-3.15l.937-2.812c.415-1.243.626-2.54.626-3.853 0-1.472-.276-2.877-.756-4.185h3.765c.648 2.261.991 4.611.991 7zm-20 19c-.063 0-.124-.007-.187-.008-.416-1.158-1.514-1.992-2.813-1.992-.762 0-1.484.206-2.114.568-3.019-1.802-4.886-5.023-4.886-8.568v-6.921c0-.829.521-1.582 1.297-1.873l4.6-1.724c2.752 1.63 5.891 2.518 9.174 2.518h4.929v8c0 5.514-4.486 10-10 10zm1.18 6 .6 3h-2.56l.6-3zm-4.18-4h-2.382l.382-.764c.381-.762 1.147-1.236 2-1.236.552 0 1 .448 1 1s-.448 1-1 1zm17-14c0 1.103-.897 2-2 2v-4c1.103 0 2 .897 2 2zm-2.181 4h.181c1.474 0 2.75-.81 3.444-2h2.908c-.675 1.781-1.549 3.493-2.622 5.102l-2.73 4.095-2.396-3.594c.588-1.109.999-2.323 1.215-3.603zm2.476-20c-1.081-1.824-2.618-3.343-4.46-4.395.146-.236.279-.473.434-.706l2.731-4.096 2.73 4.096c1.073 1.609 1.947 3.32 2.622 5.102h-4.057zm-3.228-9.903-2.461 3.692c-.213.32-.399.646-.597.97-1.31-.482-2.718-.759-4.194-.759h-2.448c2.811-2.19 6.141-3.546 9.7-3.903zm-24.545 19.308c-.346-1.039-.522-2.123-.522-3.22 0-5.617 4.568-10.185 10.185-10.185h7.631c5.616 0 10.184 4.568 10.184 10.185 0 1.098-.176 2.182-.522 3.221l-.885 2.655c-.195-.03-.39-.061-.593-.061v-2-1c0-2.793-1.987-5.217-4.726-5.765l-1.078-.216-.393 1.961 1.078.216c1.47.294 2.611 1.407 2.986 2.804h-4.797c-4.293 0-8.329-1.672-11.364-4.707l-1.414 1.414c.502.502 1.036.961 1.584 1.396l-3.283 1.23c-1.227.461-2.126 1.501-2.453 2.734l-1.1-.014c-.023 0-.046 0-.068 0-.077 0-.15.018-.226.022zm-1.637 3.504c.571-.563 1.338-.872 2.128-.856l.987.013v5.934h-1.026c-1.64 0-2.974-1.334-2.974-2.974 0-.801.314-1.553.885-2.117zm2.089 7.091h1.026v2h-2v-2.099c.315.063.64.099.974.099zm5.026 10c-2.206 0-4-1.794-4-4v-2c.509 0 .969-.197 1.323-.512.932 1.815 2.328 3.378 4.079 4.53-.065.107-.134.21-.191.324l-.829 1.658zm4.686 2.1 1.228 1.228-.734 3.672h-5.903c.824-2.445 2.867-4.302 5.409-4.9zm13.037 4.9h-5.903l-.734-3.671 1.228-1.228c2.542.597 4.585 2.454 5.409 4.899zm-6.867-6.27-1.27 1.27h-2.172l-.615-.615c.465-.352.821-.833 1.019-1.393.061.001.121.008.182.008.866 0 1.708-.097 2.522-.272zm6.556-5.309 1.652 2.478c-1.159-.117-2.298-.338-3.411-.664.65-.54 1.235-1.151 1.759-1.814zm5.522 2.481 2.461-3.691c1.297-1.946 2.314-4.035 3.071-6.211h9.261c-2.923 5.411-8.393 9.252-14.793 9.902zm15.713-11.902h-9.571c.599-2.27.924-4.616.924-7s-.325-4.73-.924-7h9.585c.877 2.212 1.339 4.579 1.339 7 0 2.473-.489 4.831-1.353 7zm-.919-16h-9.262c-.757-2.176-1.774-4.265-3.071-6.211l-2.453-3.68c2.473.253 4.874.988 7.059 2.164v4.727c0 1.103.897 2 2 2h5.145c.203.329.399.661.582 1zm12.272-3h-18v-18h4v4c0 1.103.897 2 2 2h6c1.103 0 2-.897 2-2v-4h4z"></path><path d="m56 16h2v2h-2z"></path><path d="m52 16h2v2h-2z"></path><path d="m48 16h2v2h-2z"></path><path d="m39.857 53.953-1.75.877 5.293 3.97 1.199-1.6-2.726-2.045c4.71-2.57 8.82-6.206 11.939-10.574l-1.627-1.162c-3.175 4.446-7.438 8.089-12.328 10.534z"></path><path d="m53 40h2v2h-2z"></path><path d="m54 36h2v2h-2z"></path><path d="m35.88 8.851 2.868.409-2.854-5.707-1.789.895 1.152 2.304c-3.801-.454-7.64-.369-11.422.263l.328 1.973c3.882-.649 7.823-.695 11.717-.137z"></path><path d="m20 8h2v2h-2z"></path><path d="m17 10h2v2h-2z"></path></g></g></svg>